<mxfile host="app.diagrams.net" agent="Mozilla/5.0 (Windows NT 10.0; Win64; x64) AppleWebKit/537.36 (KHTML, like Gecko) Chrome/132.0.0.0 Safari/537.36 OPR/117.0.0.0" version="26.0.16">
  <diagram name="Page-1" id="360JAZjnQnQS9ozkLuMO">
    <mxGraphModel dx="3404" dy="1982" grid="0" gridSize="10" guides="1" tooltips="1" connect="1" arrows="1" fold="1" page="0" pageScale="1" pageWidth="850" pageHeight="1100" math="0" shadow="0">
      <root>
        <mxCell id="0" />
        <mxCell id="1" parent="0" />
        <mxCell id="mjkIWFCF8xhvgssFK8zK-1" value="Leaderboard system" style="shape=umlFrame;whiteSpace=wrap;html=1;pointerEvents=0;recursiveResize=0;container=1;collapsible=0;width=160;" vertex="1" parent="1">
          <mxGeometry x="-542" y="-165" width="869" height="2219" as="geometry" />
        </mxCell>
        <mxCell id="mjkIWFCF8xhvgssFK8zK-3" value="View leaderboard" style="ellipse;whiteSpace=wrap;html=1;" vertex="1" parent="mjkIWFCF8xhvgssFK8zK-1">
          <mxGeometry x="61" y="83" width="140" height="70" as="geometry" />
        </mxCell>
        <mxCell id="mjkIWFCF8xhvgssFK8zK-11" style="edgeStyle=none;curved=1;rounded=0;orthogonalLoop=1;jettySize=auto;html=1;exitX=0;exitY=0.5;exitDx=0;exitDy=0;entryX=1;entryY=0.5;entryDx=0;entryDy=0;fontSize=12;startSize=8;endSize=8;endArrow=open;endFill=0;dashed=1;dashPattern=8 8;" edge="1" parent="mjkIWFCF8xhvgssFK8zK-1" source="mjkIWFCF8xhvgssFK8zK-4" target="mjkIWFCF8xhvgssFK8zK-3">
          <mxGeometry relative="1" as="geometry" />
        </mxCell>
        <mxCell id="mjkIWFCF8xhvgssFK8zK-39" value="&amp;lt;&amp;lt;extend&amp;gt;&amp;gt;" style="edgeLabel;html=1;align=center;verticalAlign=middle;resizable=0;points=[];fontSize=12;" vertex="1" connectable="0" parent="mjkIWFCF8xhvgssFK8zK-11">
          <mxGeometry x="-0.1" relative="1" as="geometry">
            <mxPoint as="offset" />
          </mxGeometry>
        </mxCell>
        <mxCell id="mjkIWFCF8xhvgssFK8zK-4" value="Search for specific player" style="ellipse;whiteSpace=wrap;html=1;" vertex="1" parent="mjkIWFCF8xhvgssFK8zK-1">
          <mxGeometry x="341" y="81" width="140" height="70" as="geometry" />
        </mxCell>
        <mxCell id="mjkIWFCF8xhvgssFK8zK-5" value="View sorted leaderboard by different criteria" style="ellipse;whiteSpace=wrap;html=1;" vertex="1" parent="mjkIWFCF8xhvgssFK8zK-1">
          <mxGeometry x="341" y="200" width="140" height="70" as="geometry" />
        </mxCell>
        <mxCell id="mjkIWFCF8xhvgssFK8zK-6" value="Toggle ascending or descending order" style="ellipse;whiteSpace=wrap;html=1;" vertex="1" parent="mjkIWFCF8xhvgssFK8zK-1">
          <mxGeometry x="694" y="200" width="140" height="70" as="geometry" />
        </mxCell>
        <mxCell id="mjkIWFCF8xhvgssFK8zK-7" value="View friends on leaderboard" style="ellipse;whiteSpace=wrap;html=1;" vertex="1" parent="mjkIWFCF8xhvgssFK8zK-1">
          <mxGeometry x="355" y="631" width="140" height="70" as="geometry" />
        </mxCell>
        <mxCell id="mjkIWFCF8xhvgssFK8zK-14" style="edgeStyle=none;curved=1;rounded=0;orthogonalLoop=1;jettySize=auto;html=1;exitX=0;exitY=0.5;exitDx=0;exitDy=0;entryX=1;entryY=0.5;entryDx=0;entryDy=0;fontSize=12;startSize=8;endSize=8;endArrow=block;endFill=0;" edge="1" parent="mjkIWFCF8xhvgssFK8zK-1" source="mjkIWFCF8xhvgssFK8zK-6" target="mjkIWFCF8xhvgssFK8zK-5">
          <mxGeometry relative="1" as="geometry">
            <mxPoint x="351" y="364" as="sourcePoint" />
            <mxPoint x="211" y="128" as="targetPoint" />
          </mxGeometry>
        </mxCell>
        <mxCell id="mjkIWFCF8xhvgssFK8zK-15" value="View sorted by win/loss ratio" style="ellipse;whiteSpace=wrap;html=1;" vertex="1" parent="mjkIWFCF8xhvgssFK8zK-1">
          <mxGeometry x="697" y="319" width="140" height="70" as="geometry" />
        </mxCell>
        <mxCell id="mjkIWFCF8xhvgssFK8zK-16" value="View sorted by number of wins&lt;span style=&quot;color: rgba(0, 0, 0, 0); font-family: monospace; font-size: 0px; text-align: start; text-wrap-mode: nowrap;&quot;&gt;%3CmxGraphModel%3E%3Croot%3E%3CmxCell%20id%3D%220%22%2F%3E%3CmxCell%20id%3D%221%22%20parent%3D%220%22%2F%3E%3CmxCell%20id%3D%222%22%20value%3D%22Sort%20by%20win%2Floss%20ratio%22%20style%3D%22ellipse%3BwhiteSpace%3Dwrap%3Bhtml%3D1%3B%22%20vertex%3D%221%22%20parent%3D%221%22%3E%3CmxGeometry%20x%3D%2222%22%20y%3D%22154%22%20width%3D%22140%22%20height%3D%2270%22%20as%3D%22geometry%22%2F%3E%3C%2FmxCell%3E%3C%2Froot%3E%3C%2FmxGraphModel%3E&lt;/span&gt;" style="ellipse;whiteSpace=wrap;html=1;" vertex="1" parent="mjkIWFCF8xhvgssFK8zK-1">
          <mxGeometry x="697" y="438" width="140" height="70" as="geometry" />
        </mxCell>
        <mxCell id="mjkIWFCF8xhvgssFK8zK-17" value="View sorted&amp;nbsp;by rating points" style="ellipse;whiteSpace=wrap;html=1;" vertex="1" parent="mjkIWFCF8xhvgssFK8zK-1">
          <mxGeometry x="705" y="561" width="140" height="70" as="geometry" />
        </mxCell>
        <mxCell id="mjkIWFCF8xhvgssFK8zK-18" style="edgeStyle=none;curved=1;rounded=0;orthogonalLoop=1;jettySize=auto;html=1;exitX=0;exitY=0.5;exitDx=0;exitDy=0;entryX=1;entryY=0.5;entryDx=0;entryDy=0;fontSize=12;startSize=8;endSize=8;endArrow=block;endFill=0;" edge="1" parent="mjkIWFCF8xhvgssFK8zK-1" source="mjkIWFCF8xhvgssFK8zK-15" target="mjkIWFCF8xhvgssFK8zK-5">
          <mxGeometry relative="1" as="geometry">
            <mxPoint x="702" y="77" as="sourcePoint" />
            <mxPoint x="491" y="245" as="targetPoint" />
          </mxGeometry>
        </mxCell>
        <mxCell id="mjkIWFCF8xhvgssFK8zK-19" style="edgeStyle=none;curved=1;rounded=0;orthogonalLoop=1;jettySize=auto;html=1;exitX=0;exitY=0.5;exitDx=0;exitDy=0;entryX=1;entryY=0.5;entryDx=0;entryDy=0;fontSize=12;startSize=8;endSize=8;endArrow=block;endFill=0;" edge="1" parent="mjkIWFCF8xhvgssFK8zK-1" source="mjkIWFCF8xhvgssFK8zK-16" target="mjkIWFCF8xhvgssFK8zK-5">
          <mxGeometry relative="1" as="geometry">
            <mxPoint x="705" y="196" as="sourcePoint" />
            <mxPoint x="491" y="245" as="targetPoint" />
          </mxGeometry>
        </mxCell>
        <mxCell id="mjkIWFCF8xhvgssFK8zK-20" style="edgeStyle=none;curved=1;rounded=0;orthogonalLoop=1;jettySize=auto;html=1;exitX=0;exitY=0.5;exitDx=0;exitDy=0;entryX=1;entryY=0.5;entryDx=0;entryDy=0;fontSize=12;startSize=8;endSize=8;endArrow=block;endFill=0;" edge="1" parent="mjkIWFCF8xhvgssFK8zK-1" source="mjkIWFCF8xhvgssFK8zK-17" target="mjkIWFCF8xhvgssFK8zK-5">
          <mxGeometry relative="1" as="geometry">
            <mxPoint x="705" y="315" as="sourcePoint" />
            <mxPoint x="491" y="245" as="targetPoint" />
          </mxGeometry>
        </mxCell>
        <mxCell id="mjkIWFCF8xhvgssFK8zK-22" value="Update leaderboard data" style="ellipse;whiteSpace=wrap;html=1;" vertex="1" parent="mjkIWFCF8xhvgssFK8zK-1">
          <mxGeometry x="79" y="1423" width="140" height="70" as="geometry" />
        </mxCell>
        <mxCell id="mjkIWFCF8xhvgssFK8zK-26" value="&amp;nbsp;Sort leaderboard by different criteria" style="ellipse;whiteSpace=wrap;html=1;" vertex="1" parent="mjkIWFCF8xhvgssFK8zK-1">
          <mxGeometry x="71" y="1559" width="140" height="70" as="geometry" />
        </mxCell>
        <mxCell id="mjkIWFCF8xhvgssFK8zK-27" value="Sort by ascending order" style="ellipse;whiteSpace=wrap;html=1;" vertex="1" parent="mjkIWFCF8xhvgssFK8zK-1">
          <mxGeometry x="359" y="1559" width="140" height="70" as="geometry" />
        </mxCell>
        <mxCell id="mjkIWFCF8xhvgssFK8zK-28" value="Sort&amp;nbsp;by win/loss ratio" style="ellipse;whiteSpace=wrap;html=1;" vertex="1" parent="mjkIWFCF8xhvgssFK8zK-1">
          <mxGeometry x="359" y="1791" width="140" height="70" as="geometry" />
        </mxCell>
        <mxCell id="mjkIWFCF8xhvgssFK8zK-29" value="Sort&amp;nbsp;by number of wins&lt;span style=&quot;color: rgba(0, 0, 0, 0); font-family: monospace; font-size: 0px; text-align: start; text-wrap-mode: nowrap;&quot;&gt;%3CmxGraphModel%3E%3Croot%3E%3CmxCell%20id%3D%220%22%2F%3E%3CmxCell%20id%3D%221%22%20parent%3D%220%22%2F%3E%3CmxCell%20id%3D%222%22%20value%3D%22Sort%20by%20win%2Floss%20ratio%22%20style%3D%22ellipse%3BwhiteSpace%3Dwrap%3Bhtml%3D1%3B%22%20vertex%3D%221%22%20parent%3D%221%22%3E%3CmxGeometry%20x%3D%2222%22%20y%3D%22154%22%20width%3D%22140%22%20height%3D%2270%22%20as%3D%22geometry%22%2F%3E%3C%2FmxCell%3E%3C%2Froot%3E%3C%2FmxGraphModel%3E&lt;/span&gt;" style="ellipse;whiteSpace=wrap;html=1;" vertex="1" parent="mjkIWFCF8xhvgssFK8zK-1">
          <mxGeometry x="359" y="1910" width="140" height="70" as="geometry" />
        </mxCell>
        <mxCell id="mjkIWFCF8xhvgssFK8zK-30" value="Sort&amp;nbsp;by rating points" style="ellipse;whiteSpace=wrap;html=1;" vertex="1" parent="mjkIWFCF8xhvgssFK8zK-1">
          <mxGeometry x="367" y="2033" width="140" height="70" as="geometry" />
        </mxCell>
        <mxCell id="mjkIWFCF8xhvgssFK8zK-31" value="Sort by descending order" style="ellipse;whiteSpace=wrap;html=1;" vertex="1" parent="mjkIWFCF8xhvgssFK8zK-1">
          <mxGeometry x="359" y="1675" width="140" height="70" as="geometry" />
        </mxCell>
        <mxCell id="mjkIWFCF8xhvgssFK8zK-32" style="edgeStyle=none;curved=1;rounded=0;orthogonalLoop=1;jettySize=auto;html=1;exitX=0;exitY=0.5;exitDx=0;exitDy=0;entryX=1;entryY=0.5;entryDx=0;entryDy=0;fontSize=12;startSize=8;endSize=8;endArrow=block;endFill=0;" edge="1" parent="mjkIWFCF8xhvgssFK8zK-1" source="mjkIWFCF8xhvgssFK8zK-27" target="mjkIWFCF8xhvgssFK8zK-26">
          <mxGeometry relative="1" as="geometry">
            <mxPoint x="718" y="922" as="sourcePoint" />
            <mxPoint x="496" y="729" as="targetPoint" />
          </mxGeometry>
        </mxCell>
        <mxCell id="mjkIWFCF8xhvgssFK8zK-33" style="edgeStyle=none;curved=1;rounded=0;orthogonalLoop=1;jettySize=auto;html=1;exitX=0;exitY=0.5;exitDx=0;exitDy=0;entryX=1;entryY=0.5;entryDx=0;entryDy=0;fontSize=12;startSize=8;endSize=8;endArrow=block;endFill=0;" edge="1" parent="mjkIWFCF8xhvgssFK8zK-1" source="mjkIWFCF8xhvgssFK8zK-31" target="mjkIWFCF8xhvgssFK8zK-26">
          <mxGeometry relative="1" as="geometry">
            <mxPoint x="352" y="1004" as="sourcePoint" />
            <mxPoint x="221" y="1138" as="targetPoint" />
          </mxGeometry>
        </mxCell>
        <mxCell id="mjkIWFCF8xhvgssFK8zK-34" style="edgeStyle=none;curved=1;rounded=0;orthogonalLoop=1;jettySize=auto;html=1;exitX=0;exitY=0.5;exitDx=0;exitDy=0;entryX=1;entryY=0.5;entryDx=0;entryDy=0;fontSize=12;startSize=8;endSize=8;endArrow=block;endFill=0;" edge="1" parent="mjkIWFCF8xhvgssFK8zK-1" source="mjkIWFCF8xhvgssFK8zK-28" target="mjkIWFCF8xhvgssFK8zK-26">
          <mxGeometry relative="1" as="geometry">
            <mxPoint x="352" y="1120" as="sourcePoint" />
            <mxPoint x="221" y="1138" as="targetPoint" />
          </mxGeometry>
        </mxCell>
        <mxCell id="mjkIWFCF8xhvgssFK8zK-35" style="edgeStyle=none;curved=1;rounded=0;orthogonalLoop=1;jettySize=auto;html=1;exitX=0;exitY=0.5;exitDx=0;exitDy=0;entryX=1;entryY=0.5;entryDx=0;entryDy=0;fontSize=12;startSize=8;endSize=8;endArrow=block;endFill=0;" edge="1" parent="mjkIWFCF8xhvgssFK8zK-1" source="mjkIWFCF8xhvgssFK8zK-29" target="mjkIWFCF8xhvgssFK8zK-26">
          <mxGeometry relative="1" as="geometry">
            <mxPoint x="352" y="1236" as="sourcePoint" />
            <mxPoint x="221" y="1138" as="targetPoint" />
          </mxGeometry>
        </mxCell>
        <mxCell id="mjkIWFCF8xhvgssFK8zK-36" style="edgeStyle=none;curved=1;rounded=0;orthogonalLoop=1;jettySize=auto;html=1;exitX=0;exitY=0.5;exitDx=0;exitDy=0;entryX=1;entryY=0.5;entryDx=0;entryDy=0;fontSize=12;startSize=8;endSize=8;endArrow=block;endFill=0;" edge="1" parent="mjkIWFCF8xhvgssFK8zK-1" source="mjkIWFCF8xhvgssFK8zK-30" target="mjkIWFCF8xhvgssFK8zK-26">
          <mxGeometry relative="1" as="geometry">
            <mxPoint x="352" y="1355" as="sourcePoint" />
            <mxPoint x="221" y="1138" as="targetPoint" />
          </mxGeometry>
        </mxCell>
        <mxCell id="mjkIWFCF8xhvgssFK8zK-40" style="edgeStyle=none;curved=1;rounded=0;orthogonalLoop=1;jettySize=auto;html=1;exitX=0;exitY=0.5;exitDx=0;exitDy=0;entryX=1;entryY=0.5;entryDx=0;entryDy=0;fontSize=12;startSize=8;endSize=8;endArrow=open;endFill=0;dashed=1;dashPattern=8 8;" edge="1" parent="mjkIWFCF8xhvgssFK8zK-1" source="mjkIWFCF8xhvgssFK8zK-7" target="mjkIWFCF8xhvgssFK8zK-3">
          <mxGeometry relative="1" as="geometry">
            <mxPoint x="351" y="126" as="sourcePoint" />
            <mxPoint x="211" y="128" as="targetPoint" />
          </mxGeometry>
        </mxCell>
        <mxCell id="mjkIWFCF8xhvgssFK8zK-41" value="&amp;lt;&amp;lt;extend&amp;gt;&amp;gt;" style="edgeLabel;html=1;align=center;verticalAlign=middle;resizable=0;points=[];fontSize=12;" vertex="1" connectable="0" parent="mjkIWFCF8xhvgssFK8zK-40">
          <mxGeometry x="-0.1" relative="1" as="geometry">
            <mxPoint as="offset" />
          </mxGeometry>
        </mxCell>
        <mxCell id="mjkIWFCF8xhvgssFK8zK-42" style="edgeStyle=none;curved=1;rounded=0;orthogonalLoop=1;jettySize=auto;html=1;exitX=0;exitY=0.5;exitDx=0;exitDy=0;entryX=1;entryY=0.5;entryDx=0;entryDy=0;fontSize=12;startSize=8;endSize=8;endArrow=open;endFill=0;dashed=1;dashPattern=8 8;" edge="1" parent="mjkIWFCF8xhvgssFK8zK-1" source="mjkIWFCF8xhvgssFK8zK-5" target="mjkIWFCF8xhvgssFK8zK-3">
          <mxGeometry relative="1" as="geometry">
            <mxPoint x="351" y="364" as="sourcePoint" />
            <mxPoint x="211" y="128" as="targetPoint" />
          </mxGeometry>
        </mxCell>
        <mxCell id="mjkIWFCF8xhvgssFK8zK-43" value="&amp;lt;&amp;lt;extend&amp;gt;&amp;gt;" style="edgeLabel;html=1;align=center;verticalAlign=middle;resizable=0;points=[];fontSize=12;" vertex="1" connectable="0" parent="mjkIWFCF8xhvgssFK8zK-42">
          <mxGeometry x="-0.1" relative="1" as="geometry">
            <mxPoint as="offset" />
          </mxGeometry>
        </mxCell>
        <mxCell id="mjkIWFCF8xhvgssFK8zK-44" value="Search for specific player" style="ellipse;whiteSpace=wrap;html=1;" vertex="1" parent="mjkIWFCF8xhvgssFK8zK-1">
          <mxGeometry x="79" y="1762" width="140" height="70" as="geometry" />
        </mxCell>
        <mxCell id="mjkIWFCF8xhvgssFK8zK-46" value="Display leaderboard" style="ellipse;whiteSpace=wrap;html=1;" vertex="1" parent="mjkIWFCF8xhvgssFK8zK-1">
          <mxGeometry x="67" y="738" width="140" height="70" as="geometry" />
        </mxCell>
        <mxCell id="mjkIWFCF8xhvgssFK8zK-49" value="Display friends on leaderboard" style="ellipse;whiteSpace=wrap;html=1;" vertex="1" parent="mjkIWFCF8xhvgssFK8zK-1">
          <mxGeometry x="355" y="747" width="140" height="70" as="geometry" />
        </mxCell>
        <mxCell id="mjkIWFCF8xhvgssFK8zK-50" style="edgeStyle=none;curved=1;rounded=0;orthogonalLoop=1;jettySize=auto;html=1;exitX=0;exitY=0.5;exitDx=0;exitDy=0;entryX=1;entryY=0.5;entryDx=0;entryDy=0;fontSize=12;startSize=8;endSize=8;endArrow=open;endFill=0;dashed=1;dashPattern=8 8;" edge="1" parent="mjkIWFCF8xhvgssFK8zK-1" source="mjkIWFCF8xhvgssFK8zK-49" target="mjkIWFCF8xhvgssFK8zK-46">
          <mxGeometry relative="1" as="geometry">
            <mxPoint x="352" y="735" as="sourcePoint" />
            <mxPoint x="212" y="499" as="targetPoint" />
          </mxGeometry>
        </mxCell>
        <mxCell id="mjkIWFCF8xhvgssFK8zK-51" value="&amp;lt;&amp;lt;extend&amp;gt;&amp;gt;" style="edgeLabel;html=1;align=center;verticalAlign=middle;resizable=0;points=[];fontSize=12;" vertex="1" connectable="0" parent="mjkIWFCF8xhvgssFK8zK-50">
          <mxGeometry x="-0.1" relative="1" as="geometry">
            <mxPoint as="offset" />
          </mxGeometry>
        </mxCell>
        <mxCell id="mjkIWFCF8xhvgssFK8zK-53" value="Display sorted by ascending order" style="ellipse;whiteSpace=wrap;html=1;" vertex="1" parent="mjkIWFCF8xhvgssFK8zK-1">
          <mxGeometry x="347" y="855" width="140" height="70" as="geometry" />
        </mxCell>
        <mxCell id="mjkIWFCF8xhvgssFK8zK-54" value="Display sorted&amp;nbsp;by win/loss ratio" style="ellipse;whiteSpace=wrap;html=1;" vertex="1" parent="mjkIWFCF8xhvgssFK8zK-1">
          <mxGeometry x="347" y="1087" width="140" height="70" as="geometry" />
        </mxCell>
        <mxCell id="mjkIWFCF8xhvgssFK8zK-55" value="Display sorted&amp;nbsp;by number of wins&lt;span style=&quot;color: rgba(0, 0, 0, 0); font-family: monospace; font-size: 0px; text-align: start; text-wrap-mode: nowrap;&quot;&gt;%3CmxGraphModel%3E%3Croot%3E%3CmxCell%20id%3D%220%22%2F%3E%3CmxCell%20id%3D%221%22%20parent%3D%220%22%2F%3E%3CmxCell%20id%3D%222%22%20value%3D%22Sort%20by%20win%2Floss%20ratio%22%20style%3D%22ellipse%3BwhiteSpace%3Dwrap%3Bhtml%3D1%3B%22%20vertex%3D%221%22%20parent%3D%221%22%3E%3CmxGeometry%20x%3D%2222%22%20y%3D%22154%22%20width%3D%22140%22%20height%3D%2270%22%20as%3D%22geometry%22%2F%3E%3C%2FmxCell%3E%3C%2Froot%3E%3C%2FmxGraphModel%3E&lt;/span&gt;" style="ellipse;whiteSpace=wrap;html=1;" vertex="1" parent="mjkIWFCF8xhvgssFK8zK-1">
          <mxGeometry x="347" y="1206" width="140" height="70" as="geometry" />
        </mxCell>
        <mxCell id="mjkIWFCF8xhvgssFK8zK-56" value="Display sorted&amp;nbsp;by rating points" style="ellipse;whiteSpace=wrap;html=1;" vertex="1" parent="mjkIWFCF8xhvgssFK8zK-1">
          <mxGeometry x="355" y="1329" width="140" height="70" as="geometry" />
        </mxCell>
        <mxCell id="mjkIWFCF8xhvgssFK8zK-57" value="Display sorted&amp;nbsp;by descending order" style="ellipse;whiteSpace=wrap;html=1;" vertex="1" parent="mjkIWFCF8xhvgssFK8zK-1">
          <mxGeometry x="347" y="971" width="140" height="70" as="geometry" />
        </mxCell>
        <mxCell id="mjkIWFCF8xhvgssFK8zK-58" style="edgeStyle=none;curved=1;rounded=0;orthogonalLoop=1;jettySize=auto;html=1;exitX=0;exitY=0.5;exitDx=0;exitDy=0;entryX=1;entryY=1;entryDx=0;entryDy=0;fontSize=12;startSize=8;endSize=8;endArrow=open;endFill=0;dashed=1;dashPattern=8 8;" edge="1" parent="mjkIWFCF8xhvgssFK8zK-1" source="mjkIWFCF8xhvgssFK8zK-53" target="mjkIWFCF8xhvgssFK8zK-46">
          <mxGeometry relative="1" as="geometry">
            <mxPoint x="365" y="792" as="sourcePoint" />
            <mxPoint x="217" y="783" as="targetPoint" />
          </mxGeometry>
        </mxCell>
        <mxCell id="mjkIWFCF8xhvgssFK8zK-59" value="&amp;lt;&amp;lt;extend&amp;gt;&amp;gt;" style="edgeLabel;html=1;align=center;verticalAlign=middle;resizable=0;points=[];fontSize=12;" vertex="1" connectable="0" parent="mjkIWFCF8xhvgssFK8zK-58">
          <mxGeometry x="-0.1" relative="1" as="geometry">
            <mxPoint as="offset" />
          </mxGeometry>
        </mxCell>
        <mxCell id="mjkIWFCF8xhvgssFK8zK-60" style="edgeStyle=none;curved=1;rounded=0;orthogonalLoop=1;jettySize=auto;html=1;exitX=0;exitY=0.5;exitDx=0;exitDy=0;entryX=1;entryY=1;entryDx=0;entryDy=0;fontSize=12;startSize=8;endSize=8;endArrow=open;endFill=0;dashed=1;dashPattern=8 8;" edge="1" parent="mjkIWFCF8xhvgssFK8zK-1" source="mjkIWFCF8xhvgssFK8zK-57" target="mjkIWFCF8xhvgssFK8zK-46">
          <mxGeometry relative="1" as="geometry">
            <mxPoint x="357" y="900" as="sourcePoint" />
            <mxPoint x="196" y="808" as="targetPoint" />
          </mxGeometry>
        </mxCell>
        <mxCell id="mjkIWFCF8xhvgssFK8zK-61" value="&amp;lt;&amp;lt;extend&amp;gt;&amp;gt;" style="edgeLabel;html=1;align=center;verticalAlign=middle;resizable=0;points=[];fontSize=12;" vertex="1" connectable="0" parent="mjkIWFCF8xhvgssFK8zK-60">
          <mxGeometry x="-0.1" relative="1" as="geometry">
            <mxPoint as="offset" />
          </mxGeometry>
        </mxCell>
        <mxCell id="mjkIWFCF8xhvgssFK8zK-62" style="edgeStyle=none;curved=1;rounded=0;orthogonalLoop=1;jettySize=auto;html=1;exitX=0;exitY=0.5;exitDx=0;exitDy=0;entryX=1;entryY=1;entryDx=0;entryDy=0;fontSize=12;startSize=8;endSize=8;endArrow=open;endFill=0;dashed=1;dashPattern=8 8;" edge="1" parent="mjkIWFCF8xhvgssFK8zK-1" source="mjkIWFCF8xhvgssFK8zK-54" target="mjkIWFCF8xhvgssFK8zK-46">
          <mxGeometry relative="1" as="geometry">
            <mxPoint x="357" y="1016" as="sourcePoint" />
            <mxPoint x="196" y="808" as="targetPoint" />
          </mxGeometry>
        </mxCell>
        <mxCell id="mjkIWFCF8xhvgssFK8zK-63" value="&amp;lt;&amp;lt;extend&amp;gt;&amp;gt;" style="edgeLabel;html=1;align=center;verticalAlign=middle;resizable=0;points=[];fontSize=12;" vertex="1" connectable="0" parent="mjkIWFCF8xhvgssFK8zK-62">
          <mxGeometry x="-0.1" relative="1" as="geometry">
            <mxPoint as="offset" />
          </mxGeometry>
        </mxCell>
        <mxCell id="mjkIWFCF8xhvgssFK8zK-64" style="edgeStyle=none;curved=1;rounded=0;orthogonalLoop=1;jettySize=auto;html=1;exitX=0;exitY=0.5;exitDx=0;exitDy=0;entryX=1;entryY=1;entryDx=0;entryDy=0;fontSize=12;startSize=8;endSize=8;endArrow=open;endFill=0;dashed=1;dashPattern=8 8;" edge="1" parent="mjkIWFCF8xhvgssFK8zK-1" source="mjkIWFCF8xhvgssFK8zK-55" target="mjkIWFCF8xhvgssFK8zK-46">
          <mxGeometry relative="1" as="geometry">
            <mxPoint x="357" y="1132" as="sourcePoint" />
            <mxPoint x="196" y="808" as="targetPoint" />
          </mxGeometry>
        </mxCell>
        <mxCell id="mjkIWFCF8xhvgssFK8zK-65" value="&amp;lt;&amp;lt;extend&amp;gt;&amp;gt;" style="edgeLabel;html=1;align=center;verticalAlign=middle;resizable=0;points=[];fontSize=12;" vertex="1" connectable="0" parent="mjkIWFCF8xhvgssFK8zK-64">
          <mxGeometry x="-0.1" relative="1" as="geometry">
            <mxPoint as="offset" />
          </mxGeometry>
        </mxCell>
        <mxCell id="mjkIWFCF8xhvgssFK8zK-66" style="edgeStyle=none;curved=1;rounded=0;orthogonalLoop=1;jettySize=auto;html=1;exitX=0;exitY=0.5;exitDx=0;exitDy=0;entryX=1;entryY=1;entryDx=0;entryDy=0;fontSize=12;startSize=8;endSize=8;endArrow=open;endFill=0;dashed=1;dashPattern=8 8;" edge="1" parent="mjkIWFCF8xhvgssFK8zK-1" source="mjkIWFCF8xhvgssFK8zK-56" target="mjkIWFCF8xhvgssFK8zK-46">
          <mxGeometry relative="1" as="geometry">
            <mxPoint x="357" y="1251" as="sourcePoint" />
            <mxPoint x="196" y="808" as="targetPoint" />
          </mxGeometry>
        </mxCell>
        <mxCell id="mjkIWFCF8xhvgssFK8zK-67" value="&amp;lt;&amp;lt;extend&amp;gt;&amp;gt;" style="edgeLabel;html=1;align=center;verticalAlign=middle;resizable=0;points=[];fontSize=12;" vertex="1" connectable="0" parent="mjkIWFCF8xhvgssFK8zK-66">
          <mxGeometry x="-0.1" relative="1" as="geometry">
            <mxPoint as="offset" />
          </mxGeometry>
        </mxCell>
        <mxCell id="mjkIWFCF8xhvgssFK8zK-8" value="Sorted by rating points by default" style="shape=note2;boundedLbl=1;whiteSpace=wrap;html=1;size=25;verticalAlign=top;align=center;" vertex="1" parent="mjkIWFCF8xhvgssFK8zK-1">
          <mxGeometry x="525" y="132" width="120" height="60" as="geometry" />
        </mxCell>
        <mxCell id="mjkIWFCF8xhvgssFK8zK-9" style="edgeStyle=none;curved=1;rounded=0;orthogonalLoop=1;jettySize=auto;html=1;exitX=0.5;exitY=1;exitDx=0;exitDy=0;exitPerimeter=0;entryX=1;entryY=0;entryDx=0;entryDy=0;fontSize=12;startSize=8;endSize=8;dashed=1;endArrow=none;startFill=0;" edge="1" parent="mjkIWFCF8xhvgssFK8zK-1" source="mjkIWFCF8xhvgssFK8zK-8" target="mjkIWFCF8xhvgssFK8zK-5">
          <mxGeometry relative="1" as="geometry" />
        </mxCell>
        <mxCell id="mjkIWFCF8xhvgssFK8zK-10" style="edgeStyle=none;curved=1;rounded=0;orthogonalLoop=1;jettySize=auto;html=1;entryX=0;entryY=0.5;entryDx=0;entryDy=0;fontSize=12;startSize=8;endSize=8;endArrow=none;startFill=0;" edge="1" parent="1" source="mjkIWFCF8xhvgssFK8zK-2" target="mjkIWFCF8xhvgssFK8zK-3">
          <mxGeometry relative="1" as="geometry" />
        </mxCell>
        <mxCell id="mjkIWFCF8xhvgssFK8zK-2" value="Player" style="shape=umlActor;verticalLabelPosition=bottom;verticalAlign=top;html=1;" vertex="1" parent="1">
          <mxGeometry x="-632" y="-93" width="30" height="60" as="geometry" />
        </mxCell>
        <mxCell id="mjkIWFCF8xhvgssFK8zK-21" value="Server" style="shape=umlActor;verticalLabelPosition=bottom;verticalAlign=top;html=1;" vertex="1" parent="1">
          <mxGeometry x="-636" y="1404" width="30" height="60" as="geometry" />
        </mxCell>
        <mxCell id="mjkIWFCF8xhvgssFK8zK-23" value="Database" style="shape=umlActor;verticalLabelPosition=bottom;verticalAlign=top;html=1;" vertex="1" parent="1">
          <mxGeometry x="-636" y="1569" width="30" height="60" as="geometry" />
        </mxCell>
        <mxCell id="mjkIWFCF8xhvgssFK8zK-24" style="edgeStyle=none;curved=1;rounded=0;orthogonalLoop=1;jettySize=auto;html=1;exitX=0.5;exitY=0;exitDx=0;exitDy=0;fontSize=12;startSize=8;endSize=8;endArrow=block;endFill=0;exitPerimeter=0;" edge="1" parent="1" source="mjkIWFCF8xhvgssFK8zK-23" target="mjkIWFCF8xhvgssFK8zK-21">
          <mxGeometry relative="1" as="geometry">
            <mxPoint x="-226" y="1307" as="sourcePoint" />
            <mxPoint x="-621" y="1487" as="targetPoint" />
          </mxGeometry>
        </mxCell>
        <mxCell id="mjkIWFCF8xhvgssFK8zK-37" style="edgeStyle=none;curved=1;rounded=0;orthogonalLoop=1;jettySize=auto;html=1;entryX=0;entryY=0.5;entryDx=0;entryDy=0;fontSize=12;startSize=8;endSize=8;endArrow=none;startFill=0;exitX=1;exitY=0.3333333333333333;exitDx=0;exitDy=0;exitPerimeter=0;" edge="1" parent="1" source="mjkIWFCF8xhvgssFK8zK-21" target="mjkIWFCF8xhvgssFK8zK-22">
          <mxGeometry relative="1" as="geometry">
            <mxPoint x="-561" y="-45" as="sourcePoint" />
            <mxPoint x="-471" y="-37" as="targetPoint" />
          </mxGeometry>
        </mxCell>
        <mxCell id="mjkIWFCF8xhvgssFK8zK-38" style="edgeStyle=none;curved=1;rounded=0;orthogonalLoop=1;jettySize=auto;html=1;entryX=0;entryY=0.5;entryDx=0;entryDy=0;fontSize=12;startSize=8;endSize=8;endArrow=none;startFill=0;exitX=0.5;exitY=0.5;exitDx=0;exitDy=0;exitPerimeter=0;" edge="1" parent="1" source="mjkIWFCF8xhvgssFK8zK-21" target="mjkIWFCF8xhvgssFK8zK-26">
          <mxGeometry relative="1" as="geometry">
            <mxPoint x="-561" y="326" as="sourcePoint" />
            <mxPoint x="-466" y="285" as="targetPoint" />
          </mxGeometry>
        </mxCell>
        <mxCell id="mjkIWFCF8xhvgssFK8zK-45" style="edgeStyle=none;curved=1;rounded=0;orthogonalLoop=1;jettySize=auto;html=1;entryX=0;entryY=0.5;entryDx=0;entryDy=0;fontSize=12;startSize=8;endSize=8;endArrow=none;startFill=0;exitX=1;exitY=1;exitDx=0;exitDy=0;exitPerimeter=0;" edge="1" parent="1" source="mjkIWFCF8xhvgssFK8zK-21" target="mjkIWFCF8xhvgssFK8zK-44">
          <mxGeometry relative="1" as="geometry">
            <mxPoint x="-561" y="326" as="sourcePoint" />
            <mxPoint x="-466" y="489" as="targetPoint" />
          </mxGeometry>
        </mxCell>
        <mxCell id="mjkIWFCF8xhvgssFK8zK-48" style="edgeStyle=none;curved=1;rounded=0;orthogonalLoop=1;jettySize=auto;html=1;entryX=0;entryY=0.5;entryDx=0;entryDy=0;fontSize=12;startSize=8;endSize=8;endArrow=none;startFill=0;exitX=1;exitY=1;exitDx=0;exitDy=0;exitPerimeter=0;" edge="1" parent="1" source="mjkIWFCF8xhvgssFK8zK-52" target="mjkIWFCF8xhvgssFK8zK-46">
          <mxGeometry relative="1" as="geometry">
            <mxPoint x="-561" y="326" as="sourcePoint" />
            <mxPoint x="-466" y="285" as="targetPoint" />
          </mxGeometry>
        </mxCell>
        <mxCell id="mjkIWFCF8xhvgssFK8zK-52" value="GUI" style="shape=umlActor;verticalLabelPosition=bottom;verticalAlign=top;html=1;" vertex="1" parent="1">
          <mxGeometry x="-636" y="528" width="30" height="60" as="geometry" />
        </mxCell>
      </root>
    </mxGraphModel>
  </diagram>
</mxfile>
